<?xml version="1.0" encoding="UTF-8" standalone="no"?>
<svg
   xmlns:dc="http://purl.org/dc/elements/1.1/"
   xmlns:cc="http://creativecommons.org/ns#"
   xmlns:rdf="http://www.w3.org/1999/02/22-rdf-syntax-ns#"
   xmlns:svg="http://www.w3.org/2000/svg"
   xmlns="http://www.w3.org/2000/svg"
   xmlns:xlink="http://www.w3.org/1999/xlink"
   xmlns:sodipodi="http://sodipodi.sourceforge.net/DTD/sodipodi-0.dtd"
   xmlns:inkscape="http://www.inkscape.org/namespaces/inkscape"
   version="1.1"
   width="96"
   height="96"
   viewBox="0 0 96 96"
   id="svg2"
   inkscape:version="0.91 r13725"
   sodipodi:docname="cutiefeed.svg">
  <metadata
     id="metadata10">
    <rdf:RDF>
      <cc:Work
         rdf:about="">
        <dc:format>image/svg+xml</dc:format>
        <dc:type
           rdf:resource="http://purl.org/dc/dcmitype/StillImage" />
        <dc:title />
      </cc:Work>
    </rdf:RDF>
  </metadata>
  <defs
     id="defs8">
    <linearGradient
       inkscape:collect="always"
       id="linearGradient4283">
      <stop
         style="stop-color:#000000;stop-opacity:1;"
         offset="0"
         id="stop4285" />
      <stop
         style="stop-color:#000000;stop-opacity:0.78431374"
         offset="1"
         id="stop4287" />
    </linearGradient>
    <linearGradient
       inkscape:collect="always"
       xlink:href="#linearGradient4283"
       id="linearGradient4289"
       x1="12.093211"
       y1="12.283099"
       x2="12.093211"
       y2="0.50267369"
       gradientUnits="userSpaceOnUse"
       gradientTransform="matrix(4,0,0,4,0.75732373,0.92418557)" />
  </defs>
  <sodipodi:namedview
     pagecolor="#ffffff"
     bordercolor="#666666"
     borderopacity="1"
     objecttolerance="10"
     gridtolerance="10"
     guidetolerance="10"
     inkscape:pageopacity="0"
     inkscape:pageshadow="2"
     inkscape:window-width="1024"
     inkscape:window-height="575"
     id="namedview6"
     showgrid="false"
     inkscape:zoom="3.4766083"
     inkscape:cx="50.692016"
     inkscape:cy="47.903553"
     inkscape:window-x="0"
     inkscape:window-y="25"
     inkscape:window-maximized="0"
     inkscape:current-layer="svg2" />
  <path
     d="m 3.8669977,22.478702 c 24.3062333,-24.3062314 63.7144223,-24.3062314 88.0206543,0 L 83.8832,30.48315 c -19.885496,-19.885496 -52.126256,-19.885496 -72.011753,0 L 3.8669977,22.478702 M 19.875896,38.487599 c 15.464762,-15.464761 40.538096,-15.464761 56.002856,0 l -8.004448,8.00445 c -11.044028,-11.044027 -28.949932,-11.044027 -39.993959,0 z"
     id="path4"
     inkscape:connector-curvature="0"
     sodipodi:nodetypes="cccccccccc"
     style="fill:#e60000;fill-opacity:1;stroke:url(#linearGradient4289);stroke-width:0.8;stroke-miterlimit:4;stroke-dasharray:none" />
  <path
     inkscape:connector-curvature="0"
     d="M 48.032448,49.613962 A 10.894449,10.894449 0 0 1 58.926896,60.508412 10.894449,10.894449 0 0 1 48.032448,71.402858 10.894449,10.894449 0 0 1 37.138001,60.508412 10.894449,10.894449 0 0 1 48.032448,49.613962 m 0,27.236126 c 12.038364,0 21.788896,4.875267 21.788896,10.894447 l 0,5.44723 -43.577793,0 0,-5.44723 c 0,-6.01918 9.750534,-10.894447 21.788897,-10.894447 z"
     id="path3388" />
</svg>
